<svg width="44" height="44" viewBox="0 0 44 44" fill="none" xmlns="http://www.w3.org/2000/svg">
<path d="M20.38 4.08948C19.6519 4.08973 18.9254 4.13374 18.2593 4.21461L20.1905 4.83391L22.3791 4.22889L21.1274 4.92311L23.5783 5.00188L20.9607 5.1659L21.6013 5.57692C22.6192 5.46069 23.7076 5.21285 24.8878 4.80292C24.643 4.68241 24.3069 4.56164 23.9107 4.46161C22.9559 4.22058 21.6641 4.08923 20.3802 4.08956L20.38 4.08948ZM18.2425 4.21646C17.7402 4.27794 17.2716 4.35965 16.8683 4.4627C16.4665 4.56533 16.1289 4.68988 15.8916 4.81174C16.1485 4.91135 16.4083 5.00336 16.6707 5.08763L19.3854 4.942L18.2425 4.21646ZM16.716 5.10191C17.3509 5.30322 18.0058 5.45741 18.6901 5.55148L19.4008 5.18489L16.716 5.10191ZM20.1368 5.28382L19.0287 5.59288C19.7286 5.66746 20.4599 5.67871 21.2316 5.61363L20.1368 5.28382ZM25.3063 6.25468C21.436 7.56509 18.2615 7.29021 15.5221 6.28348V28.5715C18.5195 29.7345 21.7479 29.6873 25.3063 28.4452C25.3088 21.0578 25.3067 13.2739 25.3063 6.25485V6.25468ZM27.5252 19.8924C27.5193 19.8924 27.5132 19.8926 27.5072 19.8926C27.5924 19.9944 27.6748 20.0987 27.7541 20.2052C28.4109 21.0854 28.9853 22.2481 29.4208 23.4521C29.6111 23.9778 29.7732 24.5083 29.8989 25.0276L30.1905 23.5491L30.1874 23.566C30.2163 23.4019 30.2522 23.2391 30.2952 23.0781C30.0503 22.1642 29.6302 21.3146 29.1198 20.7416C28.6352 20.1974 28.1258 19.9047 27.5254 19.8923L27.5252 19.8924ZM35.6942 20.362C33.6085 20.3676 32.0816 21.4929 31.6764 23.8247L31.6749 23.8333L31.3546 25.6252C32.6816 24.8201 34.0679 24.3088 35.6009 24.3547C37.3519 24.4072 39.27 24.9426 40.7288 25.8809L40.4449 23.7568L40.4441 23.7475C39.9941 21.2801 37.9674 20.3809 35.6943 20.362L35.6942 20.362ZM26.8179 21.5126V28.4928L28.4781 27.9431L28.4766 27.9358C28.52 27.9268 28.4989 27.9641 28.5592 27.8233C28.6197 27.6825 28.6756 27.3773 28.6659 26.9814C28.6463 26.1899 28.3941 25.0578 27.9992 23.9662C27.6736 23.0659 27.2494 22.187 26.8177 21.5126H26.8179ZM14.0104 22.8617C11.7571 23.3652 9.4499 23.8808 7.71344 24.2705C7.42008 24.3363 7.26328 24.3721 6.99621 24.4321C7.20157 24.579 7.39646 24.74 7.57948 24.9139C8.65448 25.9367 9.40043 27.3676 9.81431 28.8811C10.2283 30.3945 10.3123 31.9966 9.94557 33.4036C9.87832 33.6627 9.79249 33.9165 9.68875 34.1632L14.0106 32.7325L14.0104 22.8617ZM4.33189 25.0439C4.31341 25.0442 4.29427 25.0461 4.27562 25.0467L4.21129 25.0613C4.02165 25.105 3.84562 25.1507 3.91818 25.13L3.90248 25.1344L3.88677 25.1381C3.61424 25.2035 3.42318 25.3422 3.23522 25.6177C3.04727 25.8933 2.89063 26.3117 2.80564 26.8298C2.63566 27.866 2.75458 29.2755 3.13503 30.6133C3.51548 31.9509 4.15829 33.219 4.91592 34.0221C5.59854 34.7458 6.28402 35.0904 7.09346 34.9842C7.80061 34.6217 8.24052 33.9535 8.48307 33.0227C8.76223 31.9515 8.71067 30.5745 8.35667 29.28C8.00243 27.9854 7.34768 26.7798 6.53774 26.0091C5.87972 25.3831 5.16628 25.0307 4.33189 25.044V25.0439ZM35.5324 25.8621C33.7539 25.8513 32.0739 26.4411 30.8951 27.7862L30.6109 29.2269C31.9051 27.8736 33.7262 27.0276 35.7412 27.0276C37.9489 27.0276 39.9251 28.0415 41.2294 29.6275L41.0153 28.0253C39.6777 26.7356 37.6747 25.9241 35.7237 25.8655C35.6599 25.8637 35.5961 25.8625 35.5325 25.8622L35.5324 25.8621ZM3.90013 26.957L5.47089 29.3846L6.61836 27.5497L6.05651 29.9978L8.34072 31.3369L6.25942 30.9386L7.1347 33.236L5.64793 31.044L4.57402 32.7426L5.03215 30.4244L2.91541 29.194L4.93691 29.6549L3.90013 26.957ZM35.7411 28.3523C32.5417 28.3523 29.9622 30.9319 29.9622 34.1314C29.9622 37.3309 32.5417 39.9104 35.7411 39.9104C38.9408 39.9104 41.5203 37.3309 41.5203 34.1314C41.5203 30.9318 38.9407 28.3522 35.7411 28.3522V28.3523ZM25.3063 30.0381C21.8688 31.1408 18.5766 31.2142 15.5221 30.1775V33.5401C18.5195 34.7221 21.7477 34.6911 25.3063 33.4622V30.0381ZM35.7411 32.076C36.8763 32.076 37.7966 32.9962 37.7966 34.1314C37.7966 35.2666 36.8763 36.1869 35.7411 36.1869C34.6059 36.1869 33.6856 35.2666 33.6856 34.1314C33.6856 32.9961 34.6059 32.0758 35.7411 32.0758V32.076ZM25.5597 34.9725C21.9679 36.162 18.5327 36.2322 15.3584 35.0928L15.0932 36.2365C18.3592 37.8473 22.2317 37.8259 25.9096 36.2189L25.5597 34.9725Z" fill="#B68973"/>
</svg>
