<svg width="60" height="60" viewBox="0 0 60 60" fill="none" xmlns="http://www.w3.org/2000/svg">
<path d="M49.9713 60H10.0288C4.50924 60 0 55.4908 0 49.9713V10.0287C0 4.50924 4.50924 0 10.0288 0H49.9713C55.4908 0 60 4.50924 60 10.0287V49.9713C60 55.5154 55.5154 60 49.9713 60Z" fill="white"/>
<path d="M30.0123 45.4128C25.8974 45.4128 22.0288 43.8111 19.1212 40.9035C16.2136 37.9959 14.6119 34.1273 14.6119 30.0123C14.6119 25.8974 16.2136 22.0288 19.1212 19.1212C22.0288 16.2136 25.8974 14.6119 30.0123 14.6119C34.1273 14.6119 37.9959 16.2136 40.9035 19.1212C43.8111 22.0288 45.4128 25.8974 45.4128 30.0123C45.4128 34.1273 43.8111 37.9959 40.9035 40.9035C37.9713 43.8111 34.1273 45.4128 30.0123 45.4128ZM30.0123 17.8891C23.3347 17.8891 17.8891 23.3101 17.8891 30.0123C17.8891 36.69 23.3101 42.1355 30.0123 42.1355C36.69 42.1355 42.1356 36.7146 42.1356 30.0123C42.1109 23.3347 36.69 17.8891 30.0123 17.8891Z" fill="black"/>
<path d="M48.4145 14.1058C50.0476 14.1058 51.3715 12.7819 51.3715 11.1488C51.3715 9.51577 50.0476 8.19189 48.4145 8.19189C46.7815 8.19189 45.4576 9.51577 45.4576 11.1488C45.4576 12.7819 46.7815 14.1058 48.4145 14.1058Z" fill="black"/>
</svg>
