<svg width="15" height="14" viewBox="0 0 15 14" fill="none" xmlns="http://www.w3.org/2000/svg">
<g clip-path="url(#clip0_14_16)">
<path d="M7.37501 13.4167C10.9188 13.4167 13.7917 10.5438 13.7917 7.00001C13.7917 3.45626 10.9188 0.583344 7.37501 0.583344M7.37501 13.4167C3.83126 13.4167 0.958344 10.5438 0.958344 7.00001C0.958344 3.45626 3.83126 0.583344 7.37501 0.583344M7.37501 13.4167C9.12501 13.4167 9.70834 10.5 9.70834 7.00001C9.70834 3.50001 9.12501 0.583344 7.37501 0.583344M7.37501 13.4167C5.62501 13.4167 5.04168 10.5 5.04168 7.00001C5.04168 3.50001 5.62501 0.583344 7.37501 0.583344M1.54168 9.33334H13.2083M1.54168 4.66668H13.2083" stroke="#1E212D" stroke-width="1.16667"/>
</g>
<defs>
<clipPath id="clip0_14_16">
<rect width="14" height="14" fill="white" transform="translate(0.375)"/>
</clipPath>
</defs>
</svg>
