<svg width="18" height="20" viewBox="0 0 18 20" fill="none" xmlns="http://www.w3.org/2000/svg">
<path d="M9 3.8125C6.83156 3.8125 5.0625 5.58156 5.0625 7.75C5.0625 9.10563 5.75437 10.3094 6.80288 11.0198C4.79644 11.8804 3.375 13.8717 3.375 16.1875H4.5C4.49929 15.4185 4.69616 14.6622 5.07173 13.9911C5.4473 13.3201 5.98897 12.7567 6.64481 12.3552C6.83674 12.8224 7.16299 13.2221 7.58224 13.5038C8.0015 13.7855 8.49491 13.9364 9 13.9375C9.50519 13.9365 9.99872 13.7857 10.4181 13.504C10.8375 13.2223 11.1638 12.8225 11.3558 12.3552C12.0115 12.7568 12.553 13.3202 12.9285 13.9912C13.304 14.6623 13.5008 15.4185 13.5 16.1875H14.625C14.625 13.8717 13.2036 11.881 11.1971 11.0192C11.7323 10.658 12.1707 10.1711 12.4741 9.60118C12.7775 9.03125 12.9366 8.39565 12.9375 7.75C12.9375 5.58156 11.1684 3.8125 9 3.8125ZM9 4.9375C10.5598 4.9375 11.8125 6.19019 11.8125 7.75C11.8125 9.30981 10.5598 10.5625 9 10.5625C7.44019 10.5625 6.1875 9.30981 6.1875 7.75C6.1875 6.19019 7.44019 4.9375 9 4.9375ZM9 11.6875C9.46125 11.6875 9.90112 11.7533 10.3185 11.881C10.2224 12.154 10.044 12.3904 9.8078 12.5576C9.57163 12.7248 9.28938 12.8147 9 12.8147C8.71062 12.8147 8.42837 12.7248 8.1922 12.5576C7.95603 12.3904 7.77759 12.154 7.6815 11.881C8.10893 11.7513 8.55332 11.6861 9 11.6875Z" fill="#1E212D"/>
</svg>
