<svg width="61" height="70" viewBox="0 0 61 70" fill="none" xmlns="http://www.w3.org/2000/svg">
<path d="M44.5893 2.66285L42.9004 0H32.6802V23.9831L32.6454 47.4092C32.6628 47.5833 32.6802 47.7747 32.6802 47.9488C32.6802 53.814 27.9097 58.6002 22.0248 58.6002C16.1399 58.6002 11.3693 53.8314 11.3693 47.9488C11.3693 42.0835 16.1399 37.2974 22.0248 37.2974C23.2435 37.2974 24.4275 37.5236 25.5244 37.9065V26.2108C24.3927 26.0194 23.2261 25.915 22.0248 25.915C9.88939 25.9324 0 35.818 0 47.9662C0 60.1144 9.88939 70 22.0422 70C34.195 70 44.0844 60.1144 44.0844 47.9662V20.1019C48.4893 24.5052 54.1827 28.8041 60.4854 30.179V18.2223C53.643 15.1939 46.8353 6.24814 44.5893 2.66285Z" fill="white"/>
</svg>
