<svg width="69" height="60" viewBox="0 0 69 60" fill="none" xmlns="http://www.w3.org/2000/svg">
<path d="M0 51.4003C7.40093 51.8168 13.8727 50.0867 20.1844 45.5051C13.8087 44.4158 9.38735 41.5003 6.98445 35.477C8.84269 35.2207 10.4767 35.7013 12.399 34.9324C6.11941 32.1771 2.05048 28.0441 1.89029 20.8994C3.87669 21.0596 5.38252 22.3732 7.75338 22.181C1.98642 16.5422 0.224271 10.3908 3.84464 2.92575C9.86791 9.8461 16.9164 14.5558 25.5348 16.7665C26.0154 16.8946 26.4639 17.0228 26.9445 17.1189C29.1552 17.6315 31.7824 18.7208 33.128 18.5606C35.4348 18.2723 33.128 15.6131 33.7047 12.1529C35.5309 1.38789 47.3852 -3.51402 56.1638 2.79759C58.7269 4.65584 60.7453 4.6238 63.2764 3.50245C64.59 2.92575 65.9356 2.34905 67.5055 1.67624C67.1531 4.75195 64.7822 6.45 62.8919 8.72475C65.0385 9.20533 66.7686 8.59659 68.755 7.95582C68.0822 10.1665 66.4162 11.416 64.9103 12.6335C63.3404 13.883 62.7317 15.1966 62.6676 17.247C61.7065 48.2925 26.4319 72.2895 2.30681 53.1944C-0.0320153 51.3362 2.24271 53.1944 0 51.4003Z" fill="white"/>
</svg>
