<svg width="187" height="24" viewBox="0 0 187 24" fill="none" xmlns="http://www.w3.org/2000/svg">
<path d="M20.457 18C20.4102 18 20.3867 17.9414 20.3867 17.8242V17.7188C20.3867 17.6719 20.4102 17.6484 20.457 17.6484C20.4922 17.6484 20.5479 17.6426 20.624 17.6309C20.7002 17.6191 20.7793 17.6074 20.8613 17.5957C20.9434 17.584 21.0195 17.5723 21.0898 17.5605C21.1602 17.543 21.21 17.5312 21.2393 17.5254C21.8369 17.3906 22.1357 17.0508 22.1357 16.5059V7.22461C22.1357 6.7207 21.9336 6.36328 21.5293 6.15234C21.2891 6.02344 21.0312 5.95898 20.7559 5.95898H20.4219C20.375 5.95898 20.3516 5.93555 20.3516 5.88867V5.67773C20.3516 5.63086 20.3867 5.60742 20.457 5.60742L25.2822 5.47559H26.1699C27.207 5.5459 28.0742 5.92383 28.7715 6.60938C29.4746 7.28906 29.8262 8.12988 29.8262 9.13184C29.8262 10.1279 29.4102 10.9043 28.5781 11.4609C28.3203 11.6309 28.042 11.7832 27.7432 11.918L30.4062 16.2686C30.8691 17.0303 31.4902 17.5664 32.2695 17.877C32.334 17.8945 32.3662 17.9355 32.3662 18C32.3662 18.1465 32.2695 18.2197 32.0762 18.2197C30.7578 18.2197 29.709 17.7188 28.9297 16.7168C28.7598 16.4941 28.5898 16.2451 28.4199 15.9697L26.1436 12.4014L24.0518 12.3047H23.9814C23.8936 12.3047 23.8496 12.3457 23.8496 12.4277V16.4795C23.8496 16.8018 23.9404 17.042 24.1221 17.2002C24.3037 17.3584 24.6172 17.4668 25.0625 17.5254C25.1797 17.543 25.3232 17.5693 25.4932 17.6045C25.6631 17.6338 25.7773 17.6484 25.8359 17.6484C25.9004 17.6484 25.9326 17.6719 25.9326 17.7188V17.9297C25.9326 17.9766 25.9092 18 25.8623 18H20.457ZM24.5615 5.94141C24.4912 5.94141 24.415 5.94434 24.333 5.9502C24.2568 5.9502 24.1572 5.95312 24.0342 5.95898C23.9111 5.95898 23.8496 6.00586 23.8496 6.09961V11.4258L23.8672 11.6895C23.8848 11.8125 23.9404 11.877 24.0342 11.8828L24.9307 11.9355C26.5771 11.9355 27.5703 11.3496 27.9102 10.1777C28.0215 9.80859 28.0771 9.38672 28.0771 8.91211C28.0771 7.98633 27.7871 7.25684 27.207 6.72363C26.6328 6.19043 25.8975 5.92383 25.001 5.92383C24.9189 5.92383 24.8428 5.92676 24.7725 5.93262C24.7021 5.93262 24.6318 5.93555 24.5615 5.94141ZM34.5107 13.3682C34.4111 13.3682 34.3613 13.582 34.3613 14.0098C34.3613 14.918 34.6309 15.6797 35.1699 16.2949C35.709 16.9102 36.377 17.2178 37.1738 17.2178C37.9766 17.2178 38.7471 16.8721 39.4854 16.1807C39.4971 16.1689 39.5117 16.1631 39.5293 16.1631H39.5732C39.6084 16.1631 39.6406 16.1924 39.6699 16.251C39.7051 16.3037 39.7373 16.3389 39.7666 16.3564C39.0869 17.1826 38.2871 17.7539 37.3672 18.0703C37.0508 18.1816 36.6934 18.2373 36.2949 18.2373C35.8965 18.2373 35.4922 18.1289 35.082 17.9121C34.6719 17.6895 34.3203 17.3994 34.0273 17.042C33.4062 16.2979 33.0957 15.3721 33.0957 14.2646C33.0957 13.1514 33.4326 12.1377 34.1064 11.2236C34.7861 10.3096 35.7178 9.85254 36.9014 9.85254C37.751 9.85254 38.4453 10.2334 38.9844 10.9951C39.5234 11.751 39.793 12.416 39.793 12.9902C39.793 13.2422 39.7314 13.3682 39.6084 13.3682H34.5107ZM34.6074 12.5244C34.6074 12.6357 34.6602 12.6914 34.7656 12.6914H38.0791C38.2314 12.6914 38.3076 12.6006 38.3076 12.4189C38.3076 11.9971 38.1172 11.5664 37.7363 11.127C37.3613 10.6816 36.9482 10.459 36.4971 10.459C36.0576 10.459 35.6562 10.6582 35.293 11.0566C34.9355 11.4551 34.707 11.9092 34.6074 12.4189V12.5244ZM47.7207 15.2314L47.7031 13.377C47.7031 12.6211 47.6387 12.0908 47.5098 11.7861C47.3809 11.4814 47.2168 11.2529 47.0176 11.1006C46.8184 10.9424 46.5488 10.8633 46.209 10.8633C45.875 10.8633 45.1631 11.127 44.0732 11.6543C43.9268 11.7422 43.8506 11.8242 43.8447 11.9004V16.6289C43.8447 17.2207 44.1611 17.5605 44.7939 17.6484C45.0693 17.6895 45.207 17.7568 45.207 17.8506C45.207 17.9385 45.1777 17.9883 45.1191 18H41.1992C41.1406 17.9883 41.1113 17.9473 41.1113 17.877C41.1113 17.7656 41.249 17.6895 41.5244 17.6484C42.1572 17.5605 42.4736 17.2207 42.4736 16.6289V11.584C42.4736 11.3379 42.3389 11.168 42.0693 11.0742C41.9521 11.0332 41.8262 11.001 41.6914 10.9775C41.5566 10.9482 41.4482 10.9219 41.3662 10.8984C41.29 10.875 41.2402 10.8545 41.2168 10.8369C41.1992 10.8135 41.1904 10.7695 41.1904 10.7051C41.1904 10.6348 41.2344 10.5762 41.3223 10.5293L43.5635 9.47461C43.6338 9.43945 43.6777 9.42188 43.6953 9.42188C43.7949 9.42188 43.8447 9.49219 43.8447 9.63281V11.0039C43.8623 11.0625 43.8857 11.0918 43.915 11.0918C43.9502 11.0918 44.0762 11.0391 44.293 10.9336C44.7969 10.6816 45.3037 10.4385 45.8135 10.2041C46.3232 9.96973 46.7451 9.85254 47.0791 9.85254C48.4326 9.85254 49.1094 11.0859 49.1094 13.5527L49.0303 16.1191V16.6289C49.0303 17.0859 49.2588 17.3848 49.7158 17.5254C49.9092 17.5898 50.0938 17.6367 50.2695 17.666C50.4512 17.6895 50.5684 17.7129 50.6211 17.7363C50.6797 17.7598 50.709 17.8066 50.709 17.877C50.709 17.9473 50.6797 17.9883 50.6211 18H46.3848C46.3262 17.9883 46.2969 17.9473 46.2969 17.877C46.2969 17.7656 46.4346 17.6895 46.71 17.6484C47.3369 17.5605 47.6504 17.1973 47.6504 16.5586C47.6973 16.2656 47.7207 15.8232 47.7207 15.2314ZM56.9229 10.2217C57.1807 10.3096 57.3389 10.3535 57.3975 10.3535C57.4561 10.3535 57.4912 10.3535 57.5029 10.3535C57.5205 10.3477 57.541 10.3096 57.5645 10.2393V5.7041C57.5645 5.45801 57.4297 5.28809 57.1602 5.19434C57.043 5.15332 56.917 5.12109 56.7822 5.09766C56.6475 5.06836 56.5391 5.04199 56.457 5.01855C56.3809 4.99512 56.3311 4.97461 56.3076 4.95703C56.29 4.93359 56.2812 4.88965 56.2812 4.8252C56.2812 4.75488 56.3252 4.69629 56.4131 4.64941L58.6543 3.59473C58.7246 3.55957 58.7686 3.54199 58.7861 3.54199C58.8857 3.54199 58.9355 3.6123 58.9355 3.75293V16.2686C58.9648 16.5264 59.0381 16.7109 59.1553 16.8223C59.2725 16.9336 59.4629 16.9893 59.7266 16.9893L60.2363 16.9541C60.2715 16.9541 60.2891 16.9893 60.2891 17.0596C60.2891 17.124 60.2451 17.1768 60.1572 17.2178L57.8193 18.1846C57.749 18.2197 57.6875 18.2373 57.6348 18.2373C57.5879 18.2373 57.5645 18.1641 57.5645 18.0176V17.2178C57.5645 17.1592 57.5498 17.1299 57.5205 17.1299C57.4795 17.1299 57.2363 17.2617 56.791 17.5254C55.4258 18.334 54.2744 18.4541 53.3369 17.8857C52.5869 17.4287 52.0801 16.7051 51.8164 15.7148C51.6934 15.252 51.6318 14.7627 51.6318 14.2471C51.6318 13.7256 51.7373 13.21 51.9482 12.7002C52.165 12.1846 52.4609 11.7334 52.8359 11.3467C53.6621 10.5029 54.6582 10.0811 55.8242 10.0811C56.2988 10.0811 56.665 10.1279 56.9229 10.2217ZM52.959 13.9922C52.959 14.877 53.2051 15.6533 53.6973 16.3213C54.1895 16.9834 54.875 17.3145 55.7539 17.3145C56.1406 17.3145 56.5391 17.2207 56.9492 17.0332C57.3594 16.8398 57.5645 16.6934 57.5645 16.5938V12.0586C57.5645 11.9473 57.4883 11.8154 57.3359 11.6631C56.8672 11.0186 56.2432 10.6963 55.4639 10.6963C54.6904 10.6963 54.0781 11.0244 53.627 11.6807C53.1816 12.3311 52.959 13.1016 52.959 13.9922ZM62.4951 13.3682C62.3955 13.3682 62.3457 13.582 62.3457 14.0098C62.3457 14.918 62.6152 15.6797 63.1543 16.2949C63.6934 16.9102 64.3613 17.2178 65.1582 17.2178C65.9609 17.2178 66.7314 16.8721 67.4697 16.1807C67.4814 16.1689 67.4961 16.1631 67.5137 16.1631H67.5576C67.5928 16.1631 67.625 16.1924 67.6543 16.251C67.6895 16.3037 67.7217 16.3389 67.751 16.3564C67.0713 17.1826 66.2715 17.7539 65.3516 18.0703C65.0352 18.1816 64.6777 18.2373 64.2793 18.2373C63.8809 18.2373 63.4766 18.1289 63.0664 17.9121C62.6562 17.6895 62.3047 17.3994 62.0117 17.042C61.3906 16.2979 61.0801 15.3721 61.0801 14.2646C61.0801 13.1514 61.417 12.1377 62.0908 11.2236C62.7705 10.3096 63.7021 9.85254 64.8857 9.85254C65.7354 9.85254 66.4297 10.2334 66.9688 10.9951C67.5078 11.751 67.7773 12.416 67.7773 12.9902C67.7773 13.2422 67.7158 13.3682 67.5928 13.3682H62.4951ZM62.5918 12.5244C62.5918 12.6357 62.6445 12.6914 62.75 12.6914H66.0635C66.2158 12.6914 66.292 12.6006 66.292 12.4189C66.292 11.9971 66.1016 11.5664 65.7207 11.127C65.3457 10.6816 64.9326 10.459 64.4814 10.459C64.042 10.459 63.6406 10.6582 63.2773 11.0566C62.9199 11.4551 62.6914 11.9092 62.5918 12.4189V12.5244ZM71.4336 16.8838C71.4102 16.9189 71.3867 16.9512 71.3633 16.9805C71.3457 17.0098 71.3369 17.0479 71.3369 17.0947C71.3369 17.1357 71.3545 17.1562 71.3896 17.1562H74.7734C75.1426 17.1562 75.4648 16.9248 75.7402 16.4619C75.9336 16.1396 76.0625 15.9434 76.127 15.873C76.1973 15.8027 76.2705 15.7676 76.3467 15.7676C76.4287 15.7676 76.4697 15.8027 76.4697 15.873L75.8193 17.5957C75.8076 17.6191 75.7842 17.6924 75.749 17.8154C75.7197 17.9385 75.6611 18 75.5732 18H69.377C69.248 18 69.1836 17.9414 69.1836 17.8242C69.1836 17.7422 69.2012 17.6689 69.2363 17.6045L73.6572 11.54C73.7158 11.458 73.7656 11.3877 73.8066 11.3291C73.8535 11.2705 73.8799 11.2061 73.8857 11.1357C73.8975 11.0654 73.5107 11.0303 72.7256 11.0303H70.9238C70.4492 11.0303 70.1123 11.3262 69.9131 11.918C69.8604 12.0762 69.7988 12.2666 69.7285 12.4893C69.6641 12.7061 69.582 12.8145 69.4824 12.8145C69.4238 12.8145 69.3945 12.8027 69.3945 12.7793L69.8955 9.84375C69.9131 9.77344 69.96 9.73828 70.0361 9.73828C70.1182 9.73828 70.1943 9.7998 70.2646 9.92285C70.335 10.04 70.4199 10.1045 70.5195 10.1162C70.959 10.1748 71.5596 10.2041 72.3213 10.2041C73.083 10.2041 74.3164 10.1865 76.0215 10.1514C76.0801 10.1689 76.1094 10.2422 76.1094 10.3711C76.1094 10.4941 76.0625 10.5938 75.9688 10.6699L71.4336 16.8838ZM85.6104 10.0898C85.6748 10.1074 85.707 10.1484 85.707 10.2129C85.707 10.2773 85.6982 10.3242 85.6807 10.3535C85.6631 10.3828 85.5342 10.415 85.2939 10.4502C85.0537 10.4854 84.8809 10.5557 84.7754 10.6611C84.6758 10.7607 84.585 10.875 84.5029 11.0039C84.4268 11.1328 84.3594 11.2676 84.3008 11.4082C84.2422 11.543 84.1865 11.666 84.1338 11.7773L81.7344 17.9824C81.6641 18.1523 81.5996 18.2373 81.541 18.2373H80.8467C80.7881 18.2373 80.7236 18.1465 80.6533 17.9648L78.3242 11.6631C78.1074 11.0713 77.7354 10.6904 77.208 10.5205C77.167 10.5088 77.1172 10.5 77.0586 10.4941C76.8125 10.4707 76.6895 10.3975 76.6895 10.2744C76.6895 10.1514 76.7598 10.0898 76.9004 10.0898H80.8115C80.8584 10.0898 80.8818 10.1367 80.8818 10.2305C80.8818 10.3184 80.8496 10.377 80.7852 10.4062C80.6797 10.4473 80.4922 10.4648 80.2227 10.459C79.7832 10.4473 79.5635 10.623 79.5635 10.9863L79.6162 11.1973L81.4004 16.0752C81.5176 16.374 81.6348 16.3652 81.752 16.0488C81.7637 16.0195 81.8398 15.8291 81.9805 15.4775C82.7715 13.4561 83.2139 12.2871 83.3076 11.9707C83.4072 11.6543 83.457 11.417 83.457 11.2588C83.457 11.1006 83.3721 10.9365 83.2021 10.7666C83.0322 10.5908 82.8037 10.5029 82.5166 10.5029C82.2295 10.5029 82.0859 10.415 82.0859 10.2393C82.0859 10.1396 82.1504 10.0898 82.2793 10.0898H85.6104ZM86.4541 14.0537C86.4541 12.8994 86.8613 11.9092 87.6758 11.083C88.4961 10.251 89.4775 9.83496 90.6201 9.83496C91.7627 9.83496 92.7559 10.2393 93.5996 11.0479C94.4434 11.8506 94.8652 12.8438 94.8652 14.0273C94.8652 15.2109 94.4639 16.21 93.6611 17.0244C92.8643 17.833 91.8623 18.2373 90.6553 18.2373C89.4482 18.2373 88.4463 17.8271 87.6494 17.0068C86.8525 16.1865 86.4541 15.2021 86.4541 14.0537ZM88.6426 16.3125C89.2168 17.2793 89.999 17.7627 90.9893 17.7627C91.7568 17.7627 92.3428 17.4551 92.7471 16.8398C93.1572 16.2246 93.3623 15.4688 93.3623 14.5723C93.3623 13.6758 93.0752 12.7559 92.501 11.8125C91.9326 10.8691 91.165 10.3975 90.1982 10.3975C89.4893 10.3975 88.9297 10.7051 88.5195 11.3203C88.1152 11.9297 87.9131 12.7061 87.9131 13.6494C87.9131 14.5869 88.1562 15.4746 88.6426 16.3125ZM102.16 17.2266C102.131 17.127 102.093 17.0947 102.046 17.1299C101.999 17.1592 101.809 17.2588 101.475 17.4287C100.379 17.9736 99.4648 18.2461 98.7324 18.2461C98 18.2461 97.4727 18.0117 97.1504 17.543C97.0332 17.3672 96.9746 17.1504 96.9746 16.8926V11.5312C96.957 11.3613 96.8809 11.2148 96.7461 11.0918C96.5645 10.9395 96.374 10.8574 96.1748 10.8457C95.9814 10.834 95.8848 10.7754 95.8848 10.6699C95.8848 10.5586 95.9316 10.4912 96.0254 10.4678L98.0381 9.8877C98.1084 9.86426 98.1758 9.85254 98.2402 9.85254C98.3105 9.85254 98.3457 9.90234 98.3457 10.002V15.8994C98.3457 16.3096 98.5273 16.626 98.8906 16.8486C99.2539 17.0713 99.7168 17.1826 100.279 17.1826C100.848 17.1826 101.357 17.0098 101.809 16.6641C101.949 16.5527 102.066 16.4297 102.16 16.2949V11.5312C102.143 11.3613 102.066 11.2148 101.932 11.0918C101.75 10.9395 101.56 10.8574 101.36 10.8457C101.167 10.834 101.07 10.7754 101.07 10.6699C101.07 10.5586 101.117 10.4912 101.211 10.4678L103.224 9.8877C103.294 9.86426 103.361 9.85254 103.426 9.85254C103.496 9.85254 103.531 9.91113 103.531 10.0283V16.2686C103.561 16.5264 103.634 16.7109 103.751 16.8223C103.868 16.9336 104.059 16.9893 104.322 16.9893L104.832 16.9541C104.867 16.9541 104.885 16.9893 104.885 17.0596C104.885 17.124 104.841 17.1768 104.753 17.2178L102.415 18.1846C102.345 18.2197 102.283 18.2373 102.23 18.2373C102.184 18.2373 102.16 18.1641 102.16 18.0176V17.2266ZM110.29 11.9883C110.29 12.1172 110.24 12.1816 110.141 12.1816C110.047 12.1816 109.974 12.1113 109.921 11.9707C109.78 11.584 109.569 11.2412 109.288 10.9424C109.013 10.6436 108.67 10.4941 108.26 10.4941C107.721 10.4941 107.357 10.7637 107.17 11.3027C107.111 11.4844 107.082 11.6719 107.082 11.8652C107.082 12.0586 107.205 12.2754 107.451 12.5156C107.697 12.75 108.102 13.0312 108.664 13.3594C109.227 13.6875 109.637 13.9658 109.895 14.1943C110.48 14.7158 110.773 15.3193 110.773 16.0049C110.773 16.6904 110.521 17.2354 110.018 17.6396C109.514 18.0381 108.928 18.2373 108.26 18.2373C107.902 18.2373 107.577 18.1875 107.284 18.0879C106.997 17.9941 106.83 17.9473 106.783 17.9473C106.742 17.9473 106.672 17.9941 106.572 18.0879C106.479 18.1875 106.402 18.2373 106.344 18.2373H106.194C106.159 18.2373 106.115 17.9209 106.062 17.2881C106.01 16.6553 105.983 16.2803 105.983 16.1631C105.983 16.0459 105.992 15.9814 106.01 15.9697C106.033 15.958 106.068 15.9521 106.115 15.9521C106.162 15.9521 106.2 15.9668 106.229 15.9961C106.265 16.0254 106.294 16.0635 106.317 16.1104C106.341 16.1514 106.358 16.1953 106.37 16.2422C106.388 16.2891 106.426 16.377 106.484 16.5059C106.883 17.3555 107.498 17.7803 108.33 17.7803C108.699 17.7803 108.995 17.6455 109.218 17.376C109.44 17.1006 109.552 16.7959 109.552 16.4619C109.552 16.1279 109.464 15.8467 109.288 15.6182C109.112 15.3896 108.893 15.1816 108.629 14.9941C108.371 14.8066 108.09 14.625 107.785 14.4492C106.602 13.7578 106.01 12.9932 106.01 12.1553C106.01 11.5283 106.279 10.9893 106.818 10.5381C107.357 10.0811 107.911 9.85254 108.479 9.85254C109.048 9.85254 109.467 9.91406 109.736 10.0371C110.012 10.1602 110.173 10.2656 110.22 10.3535C110.267 10.4355 110.29 10.7109 110.29 11.1797V11.9883ZM123.693 5.71289C123.752 5.71289 123.781 5.77734 123.781 5.90625L124.01 7.77832C124.033 7.89551 124.045 7.97168 124.045 8.00684C124.045 8.03613 123.998 8.05078 123.904 8.05078C123.816 8.05078 123.761 8.03906 123.737 8.01562C123.714 7.99219 123.69 7.9541 123.667 7.90137C123.644 7.84277 123.614 7.77832 123.579 7.70801C123.55 7.6377 123.518 7.56738 123.482 7.49707C123.359 7.22754 123.166 6.96094 122.902 6.69727C122.258 6.07617 121.531 5.76562 120.723 5.76562C120.236 5.76562 119.776 5.92383 119.343 6.24023C118.909 6.55664 118.692 6.93164 118.692 7.36523C118.692 7.79297 118.771 8.16504 118.93 8.48145C119.094 8.79785 119.308 9.09082 119.571 9.36035C119.835 9.62988 120.137 9.8877 120.477 10.1338C120.816 10.3799 121.162 10.6289 121.514 10.8809C122.445 11.5312 123.107 12.0879 123.5 12.5508C124.115 13.2656 124.449 14.0684 124.502 14.959C124.502 15.9551 124.118 16.752 123.351 17.3496C122.589 17.9414 121.701 18.2373 120.688 18.2373C120.037 18.2373 119.519 18.1699 119.132 18.0352C118.751 17.9062 118.487 17.8125 118.341 17.7539C118.194 17.6953 118.086 17.666 118.016 17.666C117.951 17.666 117.91 17.6689 117.893 17.6748L117.462 17.7627C117.386 17.7627 117.339 17.7012 117.321 17.5781C117.151 16.125 117.066 15.3545 117.066 15.2666C117.066 15.1729 117.072 15.1113 117.084 15.082C117.102 15.0469 117.143 15.0293 117.207 15.0293C117.371 15.0293 117.521 15.2637 117.655 15.7324C118.271 17.0508 119.293 17.71 120.723 17.71C121.379 17.71 121.938 17.5107 122.401 17.1123C122.87 16.7139 123.104 16.1953 123.104 15.5566C123.104 14.5371 122.495 13.5879 121.276 12.709C120.931 12.4629 120.433 12.1201 119.782 11.6807C119.132 11.2412 118.613 10.8018 118.227 10.3623C117.623 9.68262 117.321 8.92676 117.321 8.09473C117.321 7.25684 117.652 6.57129 118.314 6.03809C118.982 5.50488 119.747 5.23828 120.608 5.23828C121.054 5.23828 121.543 5.31445 122.076 5.4668C122.615 5.61914 122.99 5.72168 123.201 5.77441L123.693 5.71289ZM131.92 17.2266C131.891 17.127 131.853 17.0947 131.806 17.1299C131.759 17.1592 131.568 17.2588 131.234 17.4287C130.139 17.9736 129.225 18.2461 128.492 18.2461C127.76 18.2461 127.232 18.0117 126.91 17.543C126.793 17.3672 126.734 17.1504 126.734 16.8926V11.5312C126.717 11.3613 126.641 11.2148 126.506 11.0918C126.324 10.9395 126.134 10.8574 125.935 10.8457C125.741 10.834 125.645 10.7754 125.645 10.6699C125.645 10.5586 125.691 10.4912 125.785 10.4678L127.798 9.8877C127.868 9.86426 127.936 9.85254 128 9.85254C128.07 9.85254 128.105 9.90234 128.105 10.002V15.8994C128.105 16.3096 128.287 16.626 128.65 16.8486C129.014 17.0713 129.477 17.1826 130.039 17.1826C130.607 17.1826 131.117 17.0098 131.568 16.6641C131.709 16.5527 131.826 16.4297 131.92 16.2949V11.5312C131.902 11.3613 131.826 11.2148 131.691 11.0918C131.51 10.9395 131.319 10.8574 131.12 10.8457C130.927 10.834 130.83 10.7754 130.83 10.6699C130.83 10.5586 130.877 10.4912 130.971 10.4678L132.983 9.8877C133.054 9.86426 133.121 9.85254 133.186 9.85254C133.256 9.85254 133.291 9.91113 133.291 10.0283V16.2686C133.32 16.5264 133.394 16.7109 133.511 16.8223C133.628 16.9336 133.818 16.9893 134.082 16.9893L134.592 16.9541C134.627 16.9541 134.645 16.9893 134.645 17.0596C134.645 17.124 134.601 17.1768 134.513 17.2178L132.175 18.1846C132.104 18.2197 132.043 18.2373 131.99 18.2373C131.943 18.2373 131.92 18.1641 131.92 18.0176V17.2266ZM141.131 11.6982C141.061 11.6865 140.958 11.6484 140.823 11.584C140.337 11.3613 139.956 11.25 139.681 11.25C139.405 11.25 139.115 11.4229 138.811 11.7686C138.512 12.1084 138.362 12.416 138.362 12.6914V16.6641C138.362 17.1035 138.617 17.3965 139.127 17.543C139.35 17.6016 139.558 17.6455 139.751 17.6748C139.944 17.6982 140.067 17.7217 140.12 17.7451C140.179 17.7686 140.208 17.8154 140.208 17.8857C140.208 17.9502 140.179 17.9883 140.12 18H135.717C135.658 17.9883 135.629 17.9473 135.629 17.877C135.629 17.7715 135.767 17.7012 136.042 17.666C136.675 17.5723 136.991 17.2383 136.991 16.6641V12.0146C136.991 11.7686 136.856 11.5986 136.587 11.5049C136.47 11.4639 136.344 11.4316 136.209 11.4082C136.074 11.3789 135.966 11.3525 135.884 11.3291C135.808 11.3057 135.758 11.2852 135.734 11.2676C135.717 11.2441 135.708 11.2002 135.708 11.1357C135.708 11.0654 135.752 11.0068 135.84 10.96L138.081 9.90527C138.151 9.87012 138.195 9.85254 138.213 9.85254C138.312 9.85254 138.362 9.92285 138.362 10.0635V11.4873C138.362 11.5576 138.38 11.5928 138.415 11.5928C138.462 11.5928 138.582 11.4551 138.775 11.1797C139.332 10.4004 139.792 10.0107 140.155 10.0107C140.36 10.0107 140.674 10.0928 141.096 10.2568C141.523 10.4209 141.737 10.5586 141.737 10.6699C141.737 10.8047 141.67 11.0098 141.535 11.2852C141.4 11.5605 141.266 11.6982 141.131 11.6982ZM147.793 16.5498C147.793 16.7021 147.863 16.8252 148.004 16.9189C148.15 17.0068 148.317 17.0508 148.505 17.0508C148.692 17.0508 148.848 17.0039 148.971 16.9102C149.1 16.8105 149.188 16.7607 149.234 16.7607C149.281 16.7607 149.305 16.8252 149.305 16.9541C149.305 17.0771 149.246 17.1826 149.129 17.2705C148.25 17.915 147.655 18.2373 147.345 18.2373C146.97 18.2373 146.665 17.8477 146.431 17.0684C146.413 17.0098 146.398 16.9834 146.387 16.9893C145.66 17.5342 145.203 17.8623 145.016 17.9736C144.535 18.249 144.052 18.293 143.565 18.1055C143.085 17.918 142.736 17.6074 142.52 17.1738C142.414 16.9512 142.361 16.7139 142.361 16.4619C142.361 15.9639 142.546 15.5684 142.915 15.2754C143.284 14.9824 143.987 14.7012 145.024 14.4316C145.376 14.3379 145.689 14.2178 145.965 14.0713C146.24 13.9248 146.384 13.8311 146.396 13.79C146.413 13.749 146.422 13.7109 146.422 13.6758V11.9883C146.422 11.3262 146.164 10.8604 145.648 10.5908C145.479 10.5029 145.273 10.459 145.033 10.459C144.799 10.459 144.559 10.5527 144.312 10.7402C144.072 10.9277 143.952 11.1943 143.952 11.54L143.996 11.8828C143.961 11.9531 143.75 12.0703 143.363 12.2344C142.977 12.3984 142.754 12.4863 142.695 12.498C142.602 12.498 142.555 12.3867 142.555 12.1641C142.555 11.9355 142.622 11.6836 142.757 11.4082C142.892 11.1328 143.082 10.8809 143.328 10.6523C143.902 10.1191 144.559 9.85254 145.297 9.85254C146.035 9.85254 146.636 10.0576 147.099 10.4678C147.562 10.8721 147.793 11.3555 147.793 11.918V16.5498ZM143.741 16.2949C143.741 16.5762 143.85 16.8223 144.066 17.0332C144.283 17.2383 144.529 17.3408 144.805 17.3408C145.086 17.3408 145.426 17.2236 145.824 16.9893C146.223 16.749 146.422 16.5029 146.422 16.251V14.4668C146.422 14.4023 146.407 14.3701 146.378 14.3701C146.349 14.3701 146.328 14.373 146.316 14.3789L144.277 15.3281C144.066 15.4805 143.923 15.6094 143.847 15.7148C143.776 15.8203 143.741 16.0137 143.741 16.2949ZM152.293 10.6436C152.293 10.8252 152.334 10.916 152.416 10.916C152.504 10.916 152.879 10.7256 153.541 10.3447C154.314 10.0166 154.903 9.85254 155.308 9.85254C155.712 9.85254 156.099 9.96973 156.468 10.2041C156.837 10.4385 157.15 10.7461 157.408 11.127C157.953 11.9121 158.226 12.8643 158.226 13.9834C158.226 15.1025 157.836 16.0928 157.057 16.9541C156.283 17.8096 155.261 18.2373 153.989 18.2373C153.163 18.2373 152.401 18.1377 151.704 17.9385C151.499 17.8799 151.323 17.833 151.177 17.7979C151.036 17.7627 150.957 17.7275 150.939 17.6924C150.928 17.6514 150.922 17.6045 150.922 17.5518V5.7041C150.922 5.45801 150.787 5.28809 150.518 5.19434C150.4 5.15332 150.274 5.12109 150.14 5.09766C150.005 5.06836 149.896 5.04199 149.814 5.01855C149.738 4.99512 149.688 4.97461 149.665 4.95703C149.647 4.93359 149.639 4.88965 149.639 4.8252C149.639 4.75488 149.683 4.69629 149.771 4.64941L152.012 3.59473C152.082 3.55957 152.126 3.54199 152.144 3.54199C152.243 3.54199 152.293 3.6123 152.293 3.75293V10.6436ZM154.156 10.9248C153.635 10.9248 153.049 11.1123 152.398 11.4873C152.328 11.5283 152.293 11.5986 152.293 11.6982V15.8555C152.352 16.3887 152.583 16.8047 152.987 17.1035C153.392 17.4023 153.834 17.5518 154.314 17.5518C155.158 17.5518 155.809 17.2178 156.266 16.5498C156.729 15.8818 156.96 15.1201 156.96 14.2646C156.96 13.4092 156.726 12.6387 156.257 11.9531C155.788 11.2676 155.088 10.9248 154.156 10.9248ZM165.248 16.5498C165.248 16.7021 165.318 16.8252 165.459 16.9189C165.605 17.0068 165.772 17.0508 165.96 17.0508C166.147 17.0508 166.303 17.0039 166.426 16.9102C166.555 16.8105 166.643 16.7607 166.689 16.7607C166.736 16.7607 166.76 16.8252 166.76 16.9541C166.76 17.0771 166.701 17.1826 166.584 17.2705C165.705 17.915 165.11 18.2373 164.8 18.2373C164.425 18.2373 164.12 17.8477 163.886 17.0684C163.868 17.0098 163.854 16.9834 163.842 16.9893C163.115 17.5342 162.658 17.8623 162.471 17.9736C161.99 18.249 161.507 18.293 161.021 18.1055C160.54 17.918 160.191 17.6074 159.975 17.1738C159.869 16.9512 159.816 16.7139 159.816 16.4619C159.816 15.9639 160.001 15.5684 160.37 15.2754C160.739 14.9824 161.442 14.7012 162.479 14.4316C162.831 14.3379 163.145 14.2178 163.42 14.0713C163.695 13.9248 163.839 13.8311 163.851 13.79C163.868 13.749 163.877 13.7109 163.877 13.6758V11.9883C163.877 11.3262 163.619 10.8604 163.104 10.5908C162.934 10.5029 162.729 10.459 162.488 10.459C162.254 10.459 162.014 10.5527 161.768 10.7402C161.527 10.9277 161.407 11.1943 161.407 11.54L161.451 11.8828C161.416 11.9531 161.205 12.0703 160.818 12.2344C160.432 12.3984 160.209 12.4863 160.15 12.498C160.057 12.498 160.01 12.3867 160.01 12.1641C160.01 11.9355 160.077 11.6836 160.212 11.4082C160.347 11.1328 160.537 10.8809 160.783 10.6523C161.357 10.1191 162.014 9.85254 162.752 9.85254C163.49 9.85254 164.091 10.0576 164.554 10.4678C165.017 10.8721 165.248 11.3555 165.248 11.918V16.5498ZM161.196 16.2949C161.196 16.5762 161.305 16.8223 161.521 17.0332C161.738 17.2383 161.984 17.3408 162.26 17.3408C162.541 17.3408 162.881 17.2236 163.279 16.9893C163.678 16.749 163.877 16.5029 163.877 16.251V14.4668C163.877 14.4023 163.862 14.3701 163.833 14.3701C163.804 14.3701 163.783 14.373 163.771 14.3789L161.732 15.3281C161.521 15.4805 161.378 15.6094 161.302 15.7148C161.231 15.8203 161.196 16.0137 161.196 16.2949ZM176.182 10.0898C176.246 10.1074 176.278 10.1484 176.278 10.2129C176.278 10.2773 176.272 10.3213 176.261 10.3447C176.249 10.3623 176.22 10.3799 176.173 10.3975C176.132 10.4092 176.07 10.4209 175.988 10.4326C175.912 10.4443 175.789 10.4678 175.619 10.5029C175.449 10.5322 175.297 10.6494 175.162 10.8545C175.027 11.0596 174.884 11.3438 174.731 11.707L170.601 21.9463L170.029 23.1592C169.883 23.4697 169.575 23.625 169.106 23.625C168.901 23.625 168.737 23.5576 168.614 23.4229C168.491 23.2881 168.43 23.127 168.43 22.9395C168.43 22.7578 168.474 22.623 168.562 22.5352C168.655 22.4531 168.764 22.3857 168.887 22.333C169.01 22.2803 169.136 22.2305 169.265 22.1836C169.399 22.1426 169.549 22.043 169.713 21.8848C169.877 21.7324 169.974 21.6182 170.003 21.542C170.987 19.3389 171.479 18.1875 171.479 18.0879C171.479 17.9883 171.421 17.8652 171.304 17.7188L168.403 11.6631C168.187 11.0713 167.814 10.6904 167.287 10.5205C167.246 10.5088 167.196 10.5 167.138 10.4941C166.892 10.4707 166.769 10.3975 166.769 10.2744C166.769 10.1514 166.839 10.0898 166.979 10.0898H170.891C170.938 10.0898 170.961 10.1367 170.961 10.2305C170.961 10.3184 170.92 10.3799 170.838 10.415C170.756 10.4443 170.574 10.459 170.293 10.459C169.842 10.459 169.616 10.6348 169.616 10.9863L169.695 11.1973L171.972 16.0752C172.089 16.374 172.206 16.3652 172.323 16.0488C172.335 16.0195 172.408 15.8291 172.543 15.4775C173.34 13.4561 173.785 12.2871 173.879 11.9707C173.979 11.6543 174.028 11.417 174.028 11.2588C174.028 11.1006 173.943 10.9336 173.773 10.7578C173.609 10.582 173.381 10.4941 173.088 10.4941C172.801 10.4941 172.657 10.4092 172.657 10.2393C172.657 10.1396 172.722 10.0898 172.851 10.0898H176.182ZM182.545 16.5498C182.545 16.7021 182.615 16.8252 182.756 16.9189C182.902 17.0068 183.069 17.0508 183.257 17.0508C183.444 17.0508 183.6 17.0039 183.723 16.9102C183.852 16.8105 183.939 16.7607 183.986 16.7607C184.033 16.7607 184.057 16.8252 184.057 16.9541C184.057 17.0771 183.998 17.1826 183.881 17.2705C183.002 17.915 182.407 18.2373 182.097 18.2373C181.722 18.2373 181.417 17.8477 181.183 17.0684C181.165 17.0098 181.15 16.9834 181.139 16.9893C180.412 17.5342 179.955 17.8623 179.768 17.9736C179.287 18.249 178.804 18.293 178.317 18.1055C177.837 17.918 177.488 17.6074 177.271 17.1738C177.166 16.9512 177.113 16.7139 177.113 16.4619C177.113 15.9639 177.298 15.5684 177.667 15.2754C178.036 14.9824 178.739 14.7012 179.776 14.4316C180.128 14.3379 180.441 14.2178 180.717 14.0713C180.992 13.9248 181.136 13.8311 181.147 13.79C181.165 13.749 181.174 13.7109 181.174 13.6758V11.9883C181.174 11.3262 180.916 10.8604 180.4 10.5908C180.23 10.5029 180.025 10.459 179.785 10.459C179.551 10.459 179.311 10.5527 179.064 10.7402C178.824 10.9277 178.704 11.1943 178.704 11.54L178.748 11.8828C178.713 11.9531 178.502 12.0703 178.115 12.2344C177.729 12.3984 177.506 12.4863 177.447 12.498C177.354 12.498 177.307 12.3867 177.307 12.1641C177.307 11.9355 177.374 11.6836 177.509 11.4082C177.644 11.1328 177.834 10.8809 178.08 10.6523C178.654 10.1191 179.311 9.85254 180.049 9.85254C180.787 9.85254 181.388 10.0576 181.851 10.4678C182.313 10.8721 182.545 11.3555 182.545 11.918V16.5498ZM178.493 16.2949C178.493 16.5762 178.602 16.8223 178.818 17.0332C179.035 17.2383 179.281 17.3408 179.557 17.3408C179.838 17.3408 180.178 17.2236 180.576 16.9893C180.975 16.749 181.174 16.5029 181.174 16.251V14.4668C181.174 14.4023 181.159 14.3701 181.13 14.3701C181.101 14.3701 181.08 14.373 181.068 14.3789L179.029 15.3281C178.818 15.4805 178.675 15.6094 178.599 15.7148C178.528 15.8203 178.493 16.0137 178.493 16.2949Z" fill="black"/>
<rect width="10" height="24" fill="#B68973"/>
</svg>
